M48
; DRILL file {KiCad (7.0.0)} date Mon Feb 27 00:07:09 2023
; FORMAT={-:-/ absolute / metric / decimal}
; #@! TF.CreationDate,2023-02-27T00:07:09+01:00
; #@! TF.GenerationSoftware,Kicad,Pcbnew,(7.0.0)
; #@! TF.FileFunction,MixedPlating,1,4
FMAT,2
METRIC
; #@! TA.AperFunction,Plated,PTH,ViaDrill
T1C0.200
; #@! TA.AperFunction,Plated,PTH,ViaDrill
T2C0.300
; #@! TA.AperFunction,Plated,PTH,ComponentDrill
T3C0.300
; #@! TA.AperFunction,Plated,PTH,ComponentDrill
T4C0.600
; #@! TA.AperFunction,Plated,PTH,ComponentDrill
T5C0.750
; #@! TA.AperFunction,NonPlated,NPTH,ComponentDrill
T6C0.900
; #@! TA.AperFunction,NonPlated,NPTH,ComponentDrill
T7C0.991
%
G90
G05
T1
X148.45Y-112.25
X149.15Y-111.45
T2
X106.8Y-73.3
X108.3Y-90.9
X108.9Y-76.8
X109.0Y-75.1
X109.0Y-78.6
X109.2Y-73.3
X109.2Y-82.837
X109.2Y-89.5
X109.53Y-80.23
X110.2Y-85.3
X110.2Y-87.0
X110.46Y-84.33
X110.6Y-81.5
X110.7Y-117.6
X110.73Y-114.4
X111.15Y-95.95
X111.16Y-88.13
X111.2Y-73.3
X111.5Y-76.5
X111.9Y-75.0
X111.9Y-78.0
X111.9Y-79.3
X112.0Y-114.4
X112.0Y-117.6
X112.43Y-82.15
X112.76Y-88.13
X113.0Y-79.9
X113.25Y-107.474
X113.3Y-114.4
X113.3Y-117.6
X113.4Y-78.2
X113.7Y-73.3
X113.95Y-103.5
X114.4Y-80.0
X114.75Y-95.95
X115.2Y-76.0
X115.3Y-89.7
X116.2Y-73.3
X117.8Y-78.05
X118.206Y-79.526
X118.7Y-73.3
X118.7Y-83.9
X119.2Y-76.0
X119.2Y-89.2
X119.2Y-90.6
X119.2Y-105.65
X119.3Y-79.525
X120.0Y-97.5
X120.0Y-109.5
X120.2Y-91.2
X120.2Y-92.0
X120.2Y-92.8
X120.85Y-104.45
X121.2Y-73.3
X121.762Y-76.0
X123.7Y-73.3
X123.8Y-78.3
X125.3Y-92.1
X125.3Y-95.0
X125.9Y-93.0
X125.9Y-95.7
X126.0Y-103.5
X126.2Y-73.3
X126.5Y-92.1
X126.5Y-95.0
X126.85Y-107.474
X127.1Y-93.0
X127.1Y-95.7
X127.7Y-92.1
X127.7Y-95.0
X128.2Y-72.3
X128.5Y-67.6
X128.5Y-70.1
X129.45Y-89.037
X129.9Y-80.587
X129.9Y-82.787
X129.9Y-84.987
X131.8Y-80.587
X131.8Y-82.787
X131.8Y-84.987
X133.25Y-112.3
X138.0Y-112.5
X144.5Y-110.4
X144.5Y-111.6
X145.2Y-92.5
X146.1Y-92.5
X147.0Y-92.5
X148.0Y-92.5
X149.05Y-92.5
X149.8Y-92.5
X151.85Y-92.5
X152.6Y-92.5
X152.9Y-110.4
X152.9Y-111.6
X158.3Y-106.862
X159.3Y-105.462
X160.4Y-103.862
X161.45Y-112.15
X164.2Y-112.3
X164.6Y-84.8
X164.6Y-86.5
X164.6Y-88.2
X164.6Y-89.925
X164.6Y-91.6
X165.7Y-109.5
X165.7Y-111.1
X165.7Y-112.6
X165.7Y-114.5
X165.7Y-116.4
X165.8Y-103.3
X166.5Y-90.7
X167.8Y-95.1
X168.2Y-93.2
X168.5Y-116.5
X168.6Y-109.4
X168.6Y-112.7
X168.9Y-114.5
X169.3Y-87.6
X169.5Y-116.5
X170.6Y-111.1
X170.8Y-109.4
X170.8Y-112.7
X171.85Y-95.125
X172.4Y-109.4
X172.45Y-103.15
X172.5Y-115.7
X172.5Y-116.9
X172.8Y-89.6
X174.6Y-109.4
X176.0Y-82.4
X176.237Y-115.5
X176.7Y-109.4
X177.8Y-103.3
X178.0Y-82.4
X180.0Y-82.4
X182.838Y-115.8
X183.9Y-111.1
X183.938Y-109.4
X184.45Y-103.15
T3
X108.1Y-72.6
T5
X175.05Y-87.95
X175.05Y-96.85
T6
X187.855Y-111.6
X187.855Y-114.6
T7
X109.46Y-116.0
X114.54Y-114.984
X114.54Y-117.016
T4
G00X143.06Y-113.8
M15
G01X143.06Y-115.0
M16
G05
G00X143.06Y-117.8
M15
G01X143.06Y-119.0
M16
G05
G00X154.32Y-113.8
M15
G01X154.32Y-115.0
M16
G05
G00X154.34Y-117.8
M15
G01X154.34Y-119.0
M16
G05
T0
M30
